<?xml version="1.0" standalone="no"?>
<!DOCTYPE svg PUBLIC "-//W3C//DTD SVG 20010904//EN"
 "http://www.w3.org/TR/2001/REC-SVG-20010904/DTD/svg10.dtd">
<svg version="1.0" xmlns="http://www.w3.org/2000/svg"
 width="1200.000000pt" height="1182.000000pt" viewBox="0 0 1200.000000 1182.000000"
 preserveAspectRatio="xMidYMid meet">
<metadata>
Created by potrace 1.16, written by Peter Selinger 2001-2019
</metadata>
<g transform="translate(0.000000,1182.000000) scale(0.100000,-0.100000)"
fill="#000000" stroke="none">
<path d="M5690 11790 c-127 -15 -156 -22 -215 -53 -54 -29 -69 -32 -145 -32
-111 1 -235 20 -283 46 -43 22 -73 18 -82 -11 -7 -23 -37 -34 -65 -25 -13 4
-31 0 -45 -9 -14 -9 -36 -14 -51 -12 -40 8 -132 -25 -168 -59 -18 -16 -41 -47
-51 -67 -11 -21 -22 -38 -26 -38 -4 0 -9 -13 -12 -29 -5 -25 -13 -31 -41 -37
-20 -3 -47 -17 -60 -29 -14 -13 -36 -26 -48 -30 -53 -15 -106 -45 -122 -69 -9
-14 -33 -37 -54 -50 -21 -13 -54 -40 -75 -59 -41 -40 -181 -111 -240 -122 -22
-4 -58 -18 -82 -30 -42 -23 -145 -92 -155 -105 -3 -3 -33 -28 -68 -54 -35 -27
-68 -59 -74 -72 -6 -13 -32 -36 -57 -51 -56 -32 -65 -43 -97 -111 -13 -29 -31
-55 -39 -58 -21 -9 -89 -156 -105 -229 -9 -39 -23 -70 -42 -90 -15 -17 -28
-38 -28 -46 0 -8 -14 -35 -32 -58 -24 -33 -33 -57 -36 -97 -2 -30 -8 -57 -13
-60 -12 -7 -11 -81 1 -103 10 -20 -14 -274 -29 -301 -14 -26 -30 -110 -56
-305 -15 -104 -32 -221 -40 -260 -33 -169 -38 -406 -12 -530 33 -157 67 -371
67 -425 0 -31 5 -61 11 -67 6 -6 14 -53 18 -105 4 -52 11 -99 15 -106 4 -6 11
-58 16 -114 10 -115 30 -229 48 -271 16 -39 15 -86 -2 -93 -8 -3 -17 -12 -20
-21 -8 -20 23 -123 38 -129 7 -3 21 -31 31 -62 9 -31 24 -72 31 -90 8 -18 14
-43 14 -56 0 -37 21 -89 46 -112 13 -12 25 -19 28 -16 3 3 6 -4 6 -15 0 -11 8
-31 19 -44 36 -46 42 -94 20 -157 -15 -40 -19 -75 -17 -119 3 -40 0 -64 -7
-67 -16 -6 -6 -76 11 -83 19 -7 18 -49 -1 -57 -8 -3 -15 -13 -15 -23 0 -15 -2
-16 -10 -3 -8 13 -10 13 -10 -1 0 -11 12 -19 37 -24 20 -4 42 -14 48 -22 13
-18 35 -10 35 13 0 34 20 9 39 -51 27 -82 27 -85 -8 -85 -21 0 -32 6 -36 20
-7 23 -35 27 -35 5 0 -8 -9 -15 -19 -15 -19 0 -36 -26 -23 -34 4 -2 31 -7 60
-11 42 -5 55 -12 62 -29 6 -16 3 -25 -11 -36 -21 -17 -17 -50 5 -50 22 0 77
-67 87 -106 6 -22 14 -55 19 -74 4 -19 13 -96 19 -170 9 -107 9 -137 -1 -145
-8 -6 -13 -34 -13 -70 l0 -60 43 -6 c23 -3 46 -10 51 -15 12 -12 18 -164 7
-186 -6 -13 -4 -18 7 -18 9 0 18 -13 22 -33 4 -17 16 -47 27 -64 11 -19 19
-47 17 -65 -2 -37 23 -130 45 -163 17 -25 54 -134 85 -250 12 -44 29 -100 37
-125 8 -25 14 -56 14 -70 1 -22 29 -87 30 -67 0 4 10 -2 23 -13 19 -18 22 -32
23 -100 1 -58 6 -83 18 -95 9 -9 16 -20 16 -24 0 -3 13 -14 28 -23 67 -40 94
-89 98 -178 2 -63 5 -70 27 -75 12 -3 32 -24 45 -46 13 -22 30 -43 38 -46 8
-3 14 -17 14 -32 0 -19 11 -38 35 -59 19 -18 37 -32 41 -32 3 0 15 -11 25 -24
11 -14 30 -28 42 -31 48 -14 77 -30 77 -43 0 -15 24 -42 38 -42 5 0 15 -7 23
-16 7 -9 43 -31 81 -50 37 -19 68 -38 68 -42 0 -4 16 -16 35 -26 21 -11 35
-27 35 -38 0 -14 8 -18 39 -18 30 0 47 -8 77 -35 22 -19 44 -35 51 -35 6 0 13
-4 15 -8 6 -15 75 -52 97 -52 12 0 35 -7 51 -15 29 -15 30 -15 30 10 0 14 4
25 9 25 13 0 23 -18 12 -22 -5 -1 -5 -12 -1 -24 7 -18 19 -22 91 -27 71 -5 85
-9 106 -31 13 -15 36 -27 51 -27 31 -2 51 -4 109 -14 35 -6 44 -4 49 9 4 9 18
16 34 16 23 0 27 -4 23 -19 -4 -16 6 -22 61 -40 36 -11 80 -21 98 -21 18 -1
51 -7 73 -15 22 -8 54 -15 70 -15 17 0 50 -7 74 -16 37 -12 53 -13 95 -3 60
14 128 36 174 56 26 11 40 12 67 3 26 -9 49 -9 86 -1 69 15 135 14 152 -3 9
-9 35 -14 73 -13 32 0 44 2 26 4 -18 3 -30 9 -27 14 9 14 51 11 65 -6 15 -18
170 -22 170 -5 0 15 33 12 58 -6 19 -13 28 -13 60 -3 20 7 44 20 52 29 9 9 32
20 53 24 23 4 37 13 37 21 0 8 5 15 12 15 6 0 8 3 5 7 -15 14 27 43 62 43 57
0 108 18 125 45 10 15 26 25 41 25 13 0 36 11 51 25 20 18 33 23 51 19 16 -4
28 -2 34 7 13 21 11 26 -12 32 -16 4 -20 12 -17 33 4 38 23 41 39 4 10 -21 19
-28 29 -24 8 4 36 12 63 17 26 6 47 16 47 23 0 6 7 14 15 18 10 3 15 -1 15
-12 0 -9 5 -24 10 -32 7 -11 10 1 10 40 0 34 -4 50 -9 42 -7 -11 -9 -10 -14 3
-4 9 -3 13 3 10 6 -3 10 3 10 14 0 12 -5 21 -11 21 -6 0 -9 8 -7 18 6 30 33
20 34 -13 2 -48 6 -53 13 -15 4 19 4 70 1 113 -3 44 -1 82 4 87 7 7 6 10 -2
10 -6 0 0 11 13 25 20 19 25 35 25 72 1 49 27 140 48 166 7 8 23 45 36 83 14
38 34 94 45 124 12 30 21 61 21 68 0 8 10 27 23 42 12 16 32 41 44 57 13 15
23 34 23 41 0 29 88 212 102 212 5 0 18 21 29 48 11 26 32 64 45 84 17 24 24
44 19 56 -3 11 -1 23 5 27 5 3 10 17 10 29 0 13 6 29 14 36 8 6 12 18 9 26 -3
9 2 39 11 67 53 168 84 291 91 360 7 78 7 78 43 94 21 8 45 19 54 24 10 5 26
9 35 10 13 0 11 3 -7 10 -47 19 -60 39 -60 92 0 52 36 147 56 147 26 0 33 80
12 137 -9 25 -9 46 1 95 6 35 15 82 18 106 3 30 12 47 29 59 13 8 24 20 24 26
0 11 38 47 99 92 34 25 40 36 41 66 0 20 7 42 15 49 9 7 15 29 15 55 0 26 -6
48 -15 55 -21 17 -19 42 5 63 28 23 26 49 -2 45 l-23 -3 4 180 c2 99 4 181 6
183 1 1 10 -10 20 -25 12 -18 14 -28 7 -31 -15 -5 -16 -64 -2 -78 6 -6 19 -55
30 -110 23 -119 28 -134 45 -134 13 0 55 50 55 65 0 4 7 23 16 43 9 21 22 52
30 69 19 45 41 183 53 338 10 130 6 155 -24 155 -14 0 -87 -67 -103 -95 l-11
-20 -1 20 -1 20 -9 -20 c-8 -18 -9 -17 -9 8 -1 15 4 27 12 27 9 0 9 2 0 8 -8
5 -9 13 -3 22 6 8 10 36 10 63 0 26 4 47 9 47 16 0 21 73 6 90 -26 28 -15 68
30 116 5 6 17 22 25 34 8 12 22 32 30 44 9 11 21 32 27 46 19 44 44 286 49
494 3 113 10 211 16 224 8 16 8 47 -1 115 -6 51 -11 142 -11 202 1 61 -4 135
-11 165 -29 136 -28 179 6 339 14 67 14 75 0 98 -13 19 -15 37 -10 74 6 41 4
54 -11 70 -10 11 -19 38 -20 61 -1 22 -6 43 -11 47 -11 8 -30 38 -56 91 -18
37 -22 60 -20 125 2 76 1 82 -28 118 -32 40 -54 99 -45 122 15 40 -93 262
-169 347 -26 28 -30 40 -34 90 0 9 -12 30 -26 46 -14 17 -25 37 -25 46 0 9 -4
16 -10 16 -5 0 -10 7 -10 16 0 9 -26 41 -58 73 -35 34 -64 74 -75 101 -10 28
-28 52 -46 63 -37 22 -101 93 -101 113 0 24 -86 150 -118 173 -16 11 -39 35
-52 54 -12 18 -35 41 -49 50 -14 8 -44 29 -67 45 -23 16 -58 35 -78 42 -20 6
-57 29 -82 51 -24 21 -66 45 -92 53 -99 31 -176 68 -277 135 -22 14 -57 35
-77 46 -21 11 -38 23 -38 27 0 4 -19 17 -42 29 -24 12 -45 24 -48 28 -15 19
-93 63 -126 72 -48 13 -151 53 -222 86 -63 30 -122 39 -347 54 -365 24 -410
30 -426 60 -8 15 -22 19 -67 19 -51 1 -142 10 -227 23 -16 2 -59 1 -95 -3z
m-630 -175 c0 -14 -5 -25 -12 -25 -6 0 -20 -8 -30 -17 -13 -12 -48 -19 -121
-24 -56 -5 -136 -17 -177 -27 -41 -11 -80 -17 -87 -15 -18 7 1 47 23 52 11 1
26 9 34 16 8 7 45 19 81 28 36 9 75 20 87 24 13 4 63 9 112 10 89 2 90 2 90
-22z m2605 -1745 c4 -6 15 -6 31 0 28 11 104 13 128 4 9 -3 16 -13 16 -21 0
-8 5 -11 10 -8 6 3 13 -1 16 -9 8 -20 24 -21 24 -1 0 8 5 15 11 15 6 0 8 -11
4 -28 -6 -29 -1 -35 88 -103 38 -29 50 -62 38 -105 -6 -20 -6 -36 0 -40 5 -3
9 0 9 6 0 6 5 8 10 5 15 -9 12 -46 -6 -66 -15 -17 -18 -17 -40 -2 -13 8 -24
22 -24 29 0 13 -5 15 -42 18 -7 1 -15 -15 -18 -34 -5 -30 -9 -35 -30 -32 -14
1 -30 9 -37 18 -6 9 -20 14 -30 12 -14 -2 -2 -19 53 -76 69 -71 71 -75 60
-104 -10 -28 -9 -32 24 -59 19 -16 40 -29 47 -29 26 0 34 -40 28 -160 -4 -100
-3 -120 9 -120 23 0 27 -32 21 -160 -3 -66 -3 -120 2 -120 12 0 43 -75 43
-103 0 -12 11 -39 25 -59 14 -20 25 -44 25 -53 0 -8 4 -23 9 -33 5 -9 18 -36
30 -58 11 -23 21 -51 21 -63 0 -23 37 -108 51 -117 5 -3 16 -21 24 -40 8 -19
18 -34 23 -34 6 0 15 -22 22 -49 7 -29 31 -75 62 -117 28 -38 57 -83 64 -101
18 -41 32 -235 40 -565 6 -219 4 -289 -11 -418 -10 -85 -21 -159 -26 -164 -5
-6 -9 -29 -9 -53 0 -29 -10 -64 -30 -103 -16 -33 -30 -68 -30 -78 0 -11 -7
-35 -15 -54 -8 -20 -17 -66 -21 -104 -3 -38 -15 -102 -25 -141 -11 -40 -19
-83 -19 -96 0 -13 -7 -43 -15 -68 -16 -48 -31 -149 -45 -299 -11 -115 -24
-205 -37 -245 -6 -16 -11 -64 -12 -105 -1 -41 -4 -83 -8 -94 -3 -10 1 -22 8
-26 14 -9 14 -48 -2 -135 -5 -33 -14 -95 -18 -137 -7 -63 -14 -82 -35 -102
-14 -14 -30 -26 -36 -26 -5 0 -10 -4 -10 -10 0 -5 5 -10 10 -10 6 0 10 -6 10
-14 0 -8 -7 -12 -17 -10 -10 3 -31 -5 -48 -16 -16 -11 -24 -20 -17 -20 14 0
17 -46 3 -54 -8 -5 -20 -68 -24 -124 -1 -15 -10 -25 -24 -29 -13 -3 -23 -13
-23 -22 0 -31 -11 -30 -46 5 -19 19 -37 34 -39 34 -3 0 -2 -18 1 -39 5 -31 2
-46 -15 -69 -11 -17 -21 -35 -21 -40 0 -11 -44 -42 -60 -42 -5 0 -10 7 -10 16
0 10 -6 14 -15 10 -10 -4 -15 1 -15 14 0 11 -4 20 -10 20 -5 0 -10 -18 -10
-40 0 -38 -2 -40 -30 -40 -16 0 -30 -4 -30 -10 0 -5 -10 -10 -23 -10 -20 0
-24 -5 -24 -30 0 -16 4 -30 9 -30 5 0 7 -4 4 -9 -4 -5 -1 -11 6 -13 8 -3 8 -9
1 -23 -10 -18 -11 -17 -24 3 -8 12 -20 22 -27 22 -7 0 -15 7 -18 15 -4 10 -15
12 -35 8 -18 -3 -29 -1 -29 6 0 15 -53 14 -68 -1 -9 -9 -12 -6 -12 14 0 17
-13 41 -35 65 -19 21 -38 46 -41 56 -3 10 -9 16 -12 14 -4 -2 -22 -10 -39 -17
-35 -15 -41 -28 -21 -48 9 -9 9 -12 0 -12 -7 0 -12 5 -12 10 0 6 -8 5 -20 -2
-32 -20 -25 -38 13 -31 17 3 37 10 44 15 14 11 33 -19 33 -51 0 -14 -6 -21
-20 -21 -11 0 -20 5 -20 10 0 17 -22 11 -42 -12 -12 -14 -15 -24 -8 -28 15 -9
1 -60 -16 -60 -9 0 -14 12 -14 34 0 19 -5 38 -11 41 -14 10 -16 7 -23 -49 -7
-60 1 -96 21 -96 11 0 13 -7 9 -26 -4 -14 -2 -31 3 -38 7 -9 3 -23 -16 -49
-25 -36 -26 -38 -8 -57 10 -11 15 -23 10 -28 -4 -4 -10 -2 -12 4 -6 18 -52 4
-72 -22 -14 -17 -21 -21 -25 -12 -5 10 -7 10 -12 0 -8 -17 -24 -5 -24 19 0 11
-4 17 -10 14 -5 -3 -10 -15 -10 -25 0 -17 -4 -18 -29 -9 -17 6 -35 17 -41 24
-16 19 -38 8 -56 -26 -8 -16 -20 -29 -27 -29 -7 0 -20 -9 -29 -19 -15 -17 -21
-18 -49 -8 -17 7 -43 29 -57 50 -23 34 -34 42 -55 38 -4 -1 -13 12 -18 29 -12
32 -24 36 -63 19 -20 -10 -28 -9 -41 5 -21 21 -44 20 -52 -1 -4 -10 -17 -31
-29 -46 -23 -27 -24 -27 -42 -9 -11 11 -21 25 -23 31 -3 7 -14 13 -27 14 -12
0 -22 7 -22 14 0 24 -39 13 -54 -14 -8 -16 -15 -22 -16 -15 0 10 -4 10 -19 0
-16 -9 -25 -9 -43 0 -13 7 -43 12 -66 10 -38 -3 -44 -6 -49 -30 -8 -41 -27
-53 -55 -34 -12 9 -28 16 -35 16 -7 0 -27 15 -44 33 -27 29 -29 37 -26 85 2
29 0 55 -5 58 -4 3 -8 -6 -8 -19 0 -16 -10 -31 -26 -42 -23 -15 -32 -16 -66
-4 -29 9 -41 10 -50 1 -9 -9 -9 -12 0 -12 7 0 12 -9 12 -19 0 -10 7 -22 15
-25 13 -4 14 -10 5 -26 -14 -26 -60 -26 -88 0 -29 28 -52 26 -52 -5 0 -25 -35
-100 -57 -124 -12 -11 -18 -9 -38 13 -28 30 -49 27 -82 -12 l-22 -26 -12 26
c-9 22 -8 30 5 49 9 13 16 27 16 31 0 16 -39 7 -53 -12 -9 -13 -31 -22 -63
-27 -28 -3 -63 -17 -81 -31 -38 -28 -60 -24 -69 13 -3 14 -13 25 -23 25 -26 0
-41 21 -41 57 0 33 -24 83 -40 83 -4 0 -14 -14 -21 -32 l-13 -32 -13 30 c-7
17 -10 48 -6 77 5 43 4 47 -15 47 -15 0 -20 5 -16 15 4 8 16 15 28 15 23 0 86
69 86 93 0 33 -35 59 -78 59 -30 -1 -49 6 -67 21 -21 20 -23 27 -16 72 5 27 5
62 0 78 -4 15 -6 34 -4 40 3 7 1 19 -4 26 -8 12 -13 11 -29 -9 -11 -14 -30
-23 -48 -24 -25 -1 -29 -4 -26 -28 2 -14 -6 -44 -17 -66 -11 -22 -23 -67 -27
-99 -8 -77 -18 -97 -65 -117 -22 -10 -47 -29 -55 -42 -9 -13 -21 -24 -28 -24
-12 0 -59 -55 -69 -82 -4 -10 -13 -15 -25 -11 -13 3 -25 -3 -36 -18 -13 -19
-16 -20 -16 -6 0 10 -8 20 -17 23 -10 3 -28 10 -40 16 -15 7 -31 7 -52 0 -39
-14 -56 -8 -102 36 -20 18 -45 40 -55 47 -17 13 -17 14 -2 15 9 0 20 5 24 11
8 14 -14 29 -33 22 -8 -3 -24 3 -36 14 -12 11 -36 25 -53 32 -17 7 -37 23 -44
37 -12 22 -11 27 13 52 15 16 27 34 27 41 0 24 -78 91 -110 95 -37 4 -59 30
-60 69 0 15 -4 27 -9 27 -10 0 -40 60 -46 92 -3 12 -9 26 -14 31 -5 5 -7 16
-4 24 3 7 -3 23 -12 34 -10 10 -19 27 -20 37 -1 14 -10 52 -20 92 -1 3 -5 27
-9 53 -5 27 -17 56 -26 65 -11 10 -23 45 -30 82 -6 36 -15 76 -19 90 -20 57
-61 385 -59 466 1 50 -3 67 -20 89 -12 15 -22 39 -22 52 0 13 -4 32 -10 42 -6
12 -6 31 1 55 7 26 7 46 -2 69 -9 27 -8 46 5 101 18 69 15 106 -16 201 -10 28
-17 83 -36 263 -5 42 -14 87 -20 99 -7 12 -12 44 -12 72 0 27 -4 51 -9 53 -9
3 -28 89 -50 223 -10 58 -15 456 -8 590 8 161 18 217 69 410 27 105 55 209 60
233 7 30 17 47 34 54 13 6 24 16 24 22 0 6 9 17 21 24 11 7 28 32 39 56 12 29
37 58 74 87 31 24 56 50 56 57 0 9 7 11 20 7 16 -5 20 -2 20 18 0 27 46 96 95
143 18 16 36 40 39 52 4 12 11 22 15 22 5 0 11 13 14 28 3 15 17 40 31 55 14
16 26 34 26 41 0 7 13 23 30 36 25 19 29 30 32 79 3 51 5 56 26 54 12 -2 22 2
22 8 0 7 12 23 27 36 24 23 27 23 36 8 8 -15 12 -14 37 13 15 17 30 42 34 56
3 14 13 26 22 26 24 0 91 38 98 55 3 9 10 13 16 10 17 -10 11 -37 -8 -42 -14
-3 -18 -12 -15 -31 13 -82 22 -92 43 -43 13 33 115 141 132 141 7 0 22 9 34
21 36 34 244 49 244 17 0 -4 -11 -6 -25 -2 -18 4 -27 1 -31 -10 -3 -9 -14 -16
-24 -16 -11 0 -22 -5 -25 -10 -10 -16 5 -50 21 -50 23 0 74 29 74 42 0 22 36
37 86 38 34 0 54 5 57 14 3 7 23 16 44 19 21 4 61 18 88 32 28 14 56 25 63 25
6 0 12 8 12 18 1 24 48 58 63 43 15 -15 50 -14 73 4 10 8 26 15 35 15 9 0 19
7 23 15 6 17 46 21 46 5 0 -5 9 -10 20 -10 13 0 20 7 20 19 0 31 46 54 89 45
20 -5 47 -7 60 -5 14 1 29 -6 38 -18 8 -12 20 -21 27 -21 7 0 21 -9 31 -20 10
-11 29 -20 42 -20 20 0 24 4 21 22 -2 18 -12 25 -45 32 -25 5 -43 15 -43 22 0
8 -4 14 -10 14 -5 0 -10 7 -10 15 0 11 12 15 47 15 43 0 51 -4 90 -46 24 -25
43 -50 43 -55 0 -12 25 -39 35 -39 4 0 5 7 1 15 -8 23 22 33 65 22 l39 -9 -25
-24 c-14 -13 -33 -24 -41 -24 -7 0 -14 -8 -14 -19 0 -14 -6 -17 -25 -13 -15 2
-25 0 -25 -7 0 -6 11 -11 25 -11 37 0 88 -39 74 -57 -6 -7 -17 -13 -23 -13 -6
0 -17 -9 -24 -20 -11 -19 -10 -20 25 -20 21 0 64 7 96 14 54 13 104 13 165 0
18 -4 22 -9 17 -24 -5 -15 0 -21 19 -26 36 -9 168 1 193 15 12 6 34 11 48 11
15 0 38 9 52 20 14 11 35 20 47 20 11 0 41 12 66 25 25 14 56 30 70 36 88 39
109 55 126 91 15 34 24 42 45 40 10 -1 66 60 96 105 15 23 60 66 98 97 39 31
76 61 83 67 7 5 10 14 7 20 -4 5 3 9 14 9 13 0 21 -7 21 -17 0 -15 2 -16 10
-3 6 10 6 16 0 18 -18 6 -10 28 19 56 18 17 31 24 35 17 11 -18 23 -13 30 13
6 24 37 36 97 36 15 0 31 5 34 10 8 13 62 13 70 0z"/>
<path d="M6975 8532 c-5 -4 -30 -15 -55 -23 -25 -7 -60 -28 -79 -47 -20 -19
-41 -30 -49 -27 -12 4 -13 3 -2 -10 11 -13 7 -15 -28 -15 -23 0 -44 5 -47 10
-11 17 -22 11 -46 -24 -13 -19 -35 -41 -50 -50 -16 -10 -29 -28 -33 -48 l-7
-33 -22 38 c-17 30 -27 37 -47 35 -35 -4 -37 -43 -6 -122 14 -36 26 -76 26
-89 0 -14 8 -33 17 -43 37 -36 12 -259 -39 -366 -22 -46 -23 -55 -16 -163 4
-51 14 -87 37 -134 17 -36 31 -70 31 -77 0 -8 9 -18 19 -24 21 -11 100 -14
125 -4 20 8 21 24 1 24 -8 0 -18 12 -21 26 -5 21 -2 31 15 43 16 12 19 19 10
28 -18 18 10 53 38 48 13 -3 34 -7 48 -10 14 -3 24 -9 21 -14 -3 -4 6 -13 20
-20 14 -6 22 -15 19 -21 -3 -5 3 -14 14 -20 15 -8 29 -6 55 7 20 9 36 20 36
25 0 4 6 5 13 2 7 -2 25 1 39 9 32 16 134 8 131 -11 -5 -24 77 -14 114 14 28
21 34 23 39 10 3 -9 13 -16 21 -16 9 0 13 6 9 15 -4 10 1 15 17 16 72 3 107 8
147 18 85 22 145 31 181 25 20 -4 46 -1 57 5 16 8 36 7 84 -4 35 -8 78 -15 96
-15 28 0 32 3 34 28 2 46 -3 86 -14 99 -12 15 -18 64 -7 58 4 -3 11 -1 14 5 9
15 -38 74 -86 107 -22 15 -61 45 -87 66 -26 20 -65 42 -87 47 -22 6 -48 15
-57 20 -9 5 -36 12 -60 16 -24 3 -63 12 -88 19 -91 28 -372 47 -392 27 -15
-15 -80 -16 -96 0 -9 9 -18 9 -34 1 -47 -22 -58 -22 -83 1 -20 19 -23 26 -13
33 38 24 64 33 94 33 19 0 34 3 34 8 1 21 22 35 61 39 24 2 49 10 55 18 12 16
89 45 122 45 12 0 39 7 60 16 45 20 145 22 166 5 10 -9 46 -13 101 -12 78 0
89 -2 128 -29 58 -39 140 -70 166 -63 11 3 39 -2 61 -11 22 -8 54 -14 72 -12
23 3 50 -4 88 -23 30 -16 66 -27 80 -26 14 2 28 4 32 4 10 1 26 90 20 114 -12
50 -84 131 -126 142 -26 8 -62 23 -99 42 -15 8 -51 16 -80 18 -69 4 -67 3 -67
18 0 15 -36 39 -73 46 -29 6 -34 28 -5 23 25 -4 33 18 9 25 -12 3 -21 9 -21
13 0 11 -39 20 -45 10 -2 -4 -19 -10 -36 -14 -23 -4 -38 0 -62 18 -38 29 -85
40 -116 28 -13 -5 -44 -5 -70 0 -146 27 -238 35 -306 28 -16 -2 -48 0 -70 4
-22 4 -44 3 -50 -2z m490 -616 c22 -9 48 -15 59 -16 20 0 129 -59 134 -72 2
-4 11 -8 20 -8 17 0 62 -38 62 -52 0 -14 -28 -9 -34 7 -3 9 -18 15 -39 15 -19
0 -40 7 -47 15 -7 9 -15 14 -17 12 -4 -5 -96 15 -173 38 -30 9 -61 16 -67 15
-38 -3 -63 -2 -112 9 -29 6 -72 12 -95 12 -24 1 -32 4 -18 6 13 3 33 14 44 25
18 18 29 20 131 14 62 -3 130 -12 152 -20z"/>
<path d="M5215 8513 c-27 -8 -68 -18 -90 -22 -22 -4 -53 -15 -68 -25 -22 -15
-39 -17 -83 -12 -30 3 -63 12 -74 18 -15 10 -37 9 -102 -1 -46 -7 -106 -14
-135 -15 -40 -1 -59 -8 -80 -27 -16 -14 -37 -29 -48 -33 -67 -25 -114 -53
-118 -68 -3 -11 -11 -15 -26 -11 -33 8 -63 -3 -105 -42 -21 -19 -43 -35 -47
-35 -5 0 -27 -11 -48 -24 -32 -20 -38 -29 -34 -50 3 -15 -3 -42 -15 -65 -18
-33 -19 -42 -7 -57 11 -16 17 -16 39 -6 15 7 35 12 46 12 10 0 20 5 22 11 7
21 128 39 192 28 58 -10 59 -10 85 20 24 29 31 31 106 35 44 3 99 -1 121 -7
39 -10 44 -9 80 20 31 24 44 29 62 22 14 -5 40 -4 67 3 41 11 47 10 74 -10 25
-18 44 -22 104 -22 65 0 77 -3 101 -25 17 -16 39 -25 59 -25 56 0 64 -13 34
-53 l-26 -35 -128 -6 c-71 -3 -157 -11 -193 -17 -143 -24 -180 -32 -180 -40 0
-5 -12 -9 -27 -9 -16 0 -62 -7 -103 -15 -54 -11 -81 -22 -95 -39 -11 -13 -38
-30 -60 -37 -22 -8 -60 -33 -84 -56 -25 -24 -51 -43 -58 -43 -8 0 -13 -6 -11
-14 2 -7 -7 -22 -20 -32 -21 -17 -23 -25 -17 -71 7 -47 10 -51 38 -57 17 -3
39 -13 48 -22 13 -12 28 -14 58 -9 23 4 43 11 47 16 3 5 15 9 26 9 11 0 27 8
34 18 13 16 15 16 32 -4 32 -37 71 -52 108 -41 26 8 36 7 48 -6 9 -8 16 -21
16 -27 0 -6 8 -9 18 -6 9 3 34 8 55 12 20 3 40 10 43 15 10 17 35 9 44 -15 12
-33 23 -37 58 -25 28 10 30 14 26 46 -3 25 -1 33 8 30 8 -2 13 -19 12 -40 -1
-33 2 -37 30 -43 17 -3 38 -12 46 -20 24 -21 234 -21 282 0 21 9 45 16 55 16
10 0 31 7 47 15 15 8 31 13 35 11 3 -2 30 0 59 3 28 4 52 4 52 -1 0 -4 5 -8
11 -8 6 0 17 -7 25 -15 15 -15 7 -39 -23 -73 -7 -7 -13 -19 -13 -26 0 -14 31
-46 45 -46 4 0 13 -7 20 -16 11 -15 15 -15 43 6 18 13 34 36 38 54 3 17 9 33
13 36 15 12 41 84 41 114 0 18 3 36 7 40 13 12 11 80 -1 101 -21 33 -26 65
-10 65 7 0 18 9 24 19 8 17 6 20 -19 26 -16 3 -39 15 -51 25 -12 10 -27 21
-33 24 -9 3 -8 7 2 14 8 6 15 20 16 32 1 16 -5 23 -27 27 -34 7 -46 22 -27 34
11 8 10 13 -7 27 -19 16 -20 20 -6 28 20 13 9 42 -20 54 l-23 9 23 0 c23 1 69
40 64 54 -1 5 1 7 5 5 4 -2 20 -10 36 -18 24 -12 29 -11 41 5 8 11 28 19 52
21 21 1 42 3 45 3 4 1 10 12 13 26 4 14 11 25 16 25 16 0 11 19 -10 40 -23 23
-45 26 -37 6 4 -10 1 -13 -9 -9 -11 4 -12 8 -3 20 7 8 13 44 13 81 1 63 0 67
-23 70 -13 2 -38 1 -56 -2 -29 -6 -34 -11 -40 -46 -8 -45 -20 -52 -29 -15 -4
14 -10 24 -14 22 -4 -1 -18 8 -32 21 -13 12 -30 22 -37 22 -7 0 -28 14 -47 30
-18 17 -53 37 -77 45 -24 9 -57 21 -74 29 -16 7 -52 14 -80 15 -27 1 -68 6
-90 11 -48 11 -47 11 -110 -7z"/>
<path d="M6630 6208 c-30 -6 -73 -22 -95 -37 -22 -15 -61 -40 -87 -55 -27 -15
-48 -32 -48 -39 0 -7 -15 -21 -32 -32 -18 -10 -43 -29 -55 -42 -22 -23 -48
-30 -57 -14 -8 12 -88 -8 -117 -30 l-23 -17 24 -21 c16 -13 40 -20 66 -21 46
0 126 31 146 58 7 9 22 22 33 28 11 6 22 21 25 34 7 30 31 33 102 13 48 -13
66 -13 104 -4 26 7 56 19 68 27 11 7 32 14 46 14 15 0 36 10 48 23 19 20 20
27 11 61 -8 29 -18 41 -44 52 -38 16 -38 16 -115 2z"/>
<path d="M5693 6174 c-33 -8 -58 -51 -44 -80 9 -21 17 -24 64 -24 33 0 67 -7
92 -20 22 -11 57 -20 80 -20 50 0 115 18 115 31 0 20 -65 69 -100 75 -19 3
-46 11 -61 19 -28 15 -112 26 -146 19z"/>
<path d="M6480 5867 c-62 -30 -110 -68 -110 -86 0 -11 -3 -11 -13 4 -8 10 -19
15 -24 12 -12 -8 -26 -58 -28 -107 -3 -50 -19 -83 -49 -100 -16 -8 -25 -19
-21 -28 3 -7 5 -17 5 -22 0 -12 39 -19 46 -8 7 11 83 1 100 -13 6 -5 13 -7 16
-4 3 3 22 6 42 7 56 2 75 -22 75 -93 -1 -57 -2 -59 -22 -53 -12 3 -29 13 -38
20 -17 15 -43 11 -69 -12 -8 -7 -62 -18 -120 -24 -57 -6 -108 -13 -111 -16 -4
-2 -10 0 -14 6 -12 19 -33 10 -45 -20 -7 -17 -16 -33 -21 -36 -12 -7 -49 14
-49 29 0 7 -25 21 -55 32 -33 11 -71 34 -94 57 -22 21 -46 38 -53 38 -8 0 -24
-13 -36 -30 -22 -29 -22 -29 -51 -12 -16 9 -28 18 -26 20 2 2 -1 17 -5 33 -8
26 -6 30 17 35 17 5 33 0 53 -15 38 -28 49 -27 88 9 18 16 48 33 67 39 19 5
53 24 75 41 22 17 44 29 50 25 5 -3 14 -23 20 -44 10 -37 12 -38 35 -28 14 7
25 15 25 20 0 4 6 7 14 7 12 0 52 78 44 85 -14 12 -51 25 -68 25 -19 0 -22 4
-18 32 7 44 -9 96 -30 100 -9 2 -34 1 -56 -3 -29 -5 -42 -3 -55 10 -44 44 -65
51 -144 51 -71 0 -77 -2 -69 -17 5 -10 6 -27 2 -38 -16 -49 -33 -85 -39 -85
-4 0 -17 -9 -29 -20 l-22 -21 -10 26 c-6 15 -10 33 -10 41 0 33 -71 -1 -144
-70 -32 -31 -67 -56 -77 -56 -10 0 -27 -10 -38 -21 -11 -12 -30 -27 -43 -33
-16 -8 -24 -22 -26 -44 -3 -28 -6 -31 -27 -26 -17 4 -24 1 -27 -12 -2 -13 -13
-18 -38 -18 -29 -1 -37 -6 -50 -33 -18 -38 -63 -67 -93 -60 -32 7 -52 -3 -86
-47 -22 -28 -31 -34 -31 -21 0 12 -13 1 -35 -31 -27 -37 -35 -59 -35 -91 0
-24 -9 -58 -20 -79 -15 -25 -22 -60 -25 -113 -2 -42 -4 -80 -5 -86 -6 -28 2
-35 40 -35 l39 0 7 -60 c4 -40 11 -60 20 -60 8 0 11 6 8 15 -5 12 3 15 35 15
47 0 120 44 121 73 0 9 7 17 15 17 9 0 21 11 27 25 15 33 88 75 130 75 18 0
50 -9 69 -19 20 -11 50 -19 66 -19 16 1 38 -4 48 -10 11 -5 43 -13 70 -17 28
-4 60 -14 73 -21 19 -13 29 -13 70 -1 47 14 47 14 47 58 -1 42 -2 44 -38 52
-58 14 -74 67 -24 81 34 9 117 7 167 -5 24 -5 159 -12 300 -14 140 -2 291 -9
335 -14 44 -6 100 -8 126 -5 44 6 47 5 53 -20 4 -15 1 -35 -6 -48 -16 -27 -58
-68 -69 -68 -5 0 -9 -14 -9 -30 0 -24 7 -35 30 -48 16 -9 30 -21 30 -26 0 -5
6 -3 14 3 8 7 41 15 73 18 62 7 118 28 172 68 19 14 46 25 60 25 15 0 31 4 37
9 5 5 26 14 47 21 33 10 45 10 78 -5 21 -10 39 -22 39 -27 0 -4 16 -16 35 -25
19 -9 35 -20 35 -24 0 -4 15 -17 33 -28 19 -11 42 -36 52 -56 19 -35 19 -35
75 -28 69 7 88 17 96 49 4 14 17 36 29 48 28 28 40 100 40 240 0 70 -4 101
-13 104 -6 2 -12 7 -12 12 0 14 -54 70 -67 70 -7 0 -13 5 -13 11 0 6 -24 36
-54 67 -30 32 -72 76 -94 99 -33 35 -47 43 -87 47 -43 5 -82 27 -106 60 -6 7
-43 14 -93 15 -14 1 -17 6 -13 22 9 34 -2 48 -66 81 -75 37 -82 45 -91 90 -5
26 -13 39 -29 44 -12 4 -34 15 -49 25 -15 11 -43 19 -68 19 -23 0 -56 6 -73
14 -52 22 -88 36 -90 35 -1 0 -22 -10 -47 -22z"/>
<path d="M6447 4786 c-9 -9 -39 -16 -78 -17 -35 -1 -76 -9 -91 -17 -23 -14
-28 -14 -42 0 -9 10 -28 14 -48 13 -18 -2 -37 -4 -42 -4 -5 -1 -3 -8 4 -16 9
-11 10 -15 0 -15 -6 0 -10 -8 -8 -17 4 -22 65 -25 86 -5 7 6 16 12 20 12 7 0
32 -48 32 -61 0 -13 -81 -39 -123 -39 -23 0 -62 -6 -87 -12 -25 -6 -56 -11
-70 -12 -31 -2 -180 -35 -200 -46 -18 -8 -26 -50 -11 -50 7 0 11 -27 11 -70
l0 -71 43 -19 c46 -22 86 -25 134 -11 40 12 53 -1 53 -51 0 -48 26 -52 38 -5
l9 32 59 -3 c45 -3 62 -8 73 -23 7 -10 20 -19 27 -19 13 0 18 -11 15 -36 -1
-6 10 -17 24 -24 14 -7 25 -21 25 -30 0 -10 7 -23 16 -30 12 -11 18 -11 30 2
17 17 10 44 -16 58 -30 16 -13 53 40 88 27 18 56 32 65 32 29 0 69 27 110 74
38 45 85 63 85 34 1 -19 30 23 30 41 0 9 14 29 30 45 l31 28 -22 19 c-12 11
-41 24 -63 29 -23 6 -50 15 -61 19 -26 11 -134 31 -168 31 -32 0 -45 19 -24
35 10 7 17 17 17 23 0 6 12 12 28 14 19 2 26 8 24 21 -3 19 10 22 38 7 14 -7
23 -6 34 6 28 27 19 39 -26 35 -10 -1 -18 3 -18 8 0 15 -16 14 -33 -3z"/>
<path d="M2904 7163 c-3 -10 -10 -29 -14 -43 -39 -114 -39 -213 0 -290 16 -32
34 -61 39 -64 5 -3 12 -31 16 -61 5 -41 14 -65 36 -89 16 -19 29 -39 29 -46 0
-22 35 -5 44 22 8 22 4 38 -17 82 -15 30 -32 58 -37 61 -6 3 -10 28 -10 54 0
54 28 101 60 101 23 0 27 6 39 59 8 38 7 45 -15 68 -13 14 -24 29 -24 34 0 4
-6 14 -13 21 -7 7 -23 30 -36 51 -34 55 -85 76 -97 40z"/>
<path d="M7796 2184 c-3 -8 -10 -12 -16 -9 -5 3 -10 1 -10 -5 0 -6 -4 -8 -10
-5 -13 8 -13 -8 1 -22 13 -13 2 -53 -15 -53 -15 0 -50 -104 -36 -108 16 -6 11
-42 -6 -42 -9 0 -14 -7 -12 -17 4 -22 66 -29 92 -10 19 14 19 15 -2 21 -12 4
-23 16 -23 27 -1 10 -2 24 -3 31 -1 6 5 13 12 16 6 2 12 -2 12 -10 0 -7 14
-19 30 -26 29 -13 41 -32 20 -32 -5 0 -10 -5 -10 -11 0 -6 6 -9 13 -6 15 6 22
-78 8 -114 -8 -21 -10 -22 -16 -6 -4 9 -14 17 -22 17 -9 0 -22 -8 -29 -17 -17
-23 -18 -105 -1 -122 10 -11 10 -14 0 -18 -22 -8 -14 -27 17 -45 17 -10 36
-31 43 -48 10 -23 16 -27 25 -18 16 16 15 28 -2 28 -11 0 -10 6 3 34 9 18 19
32 24 29 4 -2 7 1 7 6 0 6 -16 11 -35 11 -19 0 -35 4 -35 9 0 16 18 22 23 9 2
-7 9 4 16 25 10 29 18 37 37 37 15 0 24 6 24 16 0 14 11 15 88 9 100 -8 106
-10 93 -33 -7 -12 -4 -23 11 -39 16 -17 18 -25 9 -41 -6 -12 -11 -31 -11 -44
0 -13 -7 -36 -15 -52 -8 -15 -15 -33 -15 -39 0 -17 -41 -97 -50 -97 -4 0 -18
-16 -30 -37 -22 -38 -14 -58 18 -45 10 3 13 1 8 -7 -4 -6 -15 -9 -25 -6 -13 4
-23 -6 -40 -40 -12 -25 -26 -45 -30 -45 -3 0 -14 -12 -23 -27 -34 -58 -101
-123 -124 -123 -13 0 -24 5 -24 12 0 7 -15 -2 -33 -20 -18 -18 -41 -32 -50
-32 -9 0 -27 -10 -38 -21 -12 -12 -34 -22 -50 -23 -15 -1 -31 -5 -35 -9 -4 -4
-14 -7 -22 -7 -11 0 -12 3 -3 14 10 11 8 16 -9 21 -29 9 -32 3 -16 -31 22 -44
24 -84 5 -84 -5 0 -9 10 -7 22 2 15 -2 23 -12 23 -8 0 -15 -8 -15 -17 0 -10
-8 -25 -18 -35 -10 -11 -17 -13 -17 -5 0 7 -7 12 -15 12 -17 0 -39 36 -31 55
6 18 -38 25 -81 13 -27 -7 -34 -14 -31 -31 3 -19 11 -23 55 -27 l51 -5 -18
-22 c-9 -12 -20 -20 -23 -17 -3 3 -19 -2 -36 -12 -31 -18 -39 -38 -21 -49 14
-9 12 -22 -5 -29 -8 -3 -14 0 -12 6 3 18 -30 21 -36 3 -4 -9 -1 -15 7 -15 8 0
13 -8 11 -17 -2 -10 -4 -22 -4 -27 -1 -4 -13 -6 -27 -3 -20 4 -34 -2 -55 -24
-29 -30 -38 -46 -19 -34 6 3 10 2 10 -4 0 -6 -17 -9 -37 -7 -28 3 -41 -1 -51
-15 -7 -11 -18 -19 -23 -19 -5 0 -21 -7 -35 -16 -23 -15 -23 -18 -9 -34 15
-17 13 -18 -27 -23 -56 -6 -66 -9 -108 -33 -23 -12 -54 -19 -92 -19 -32 0 -58
-4 -59 -10 0 -5 -5 -16 -11 -22 -8 -9 -7 -13 3 -13 12 0 12 -2 0 -9 -18 -11
24 -41 58 -41 26 0 91 36 91 51 0 5 9 9 21 9 11 0 33 6 47 14 50 27 138 64
167 72 17 4 42 15 57 26 15 10 42 24 60 30 18 6 44 21 58 33 32 29 75 50 120
60 19 4 46 20 60 34 24 26 63 53 191 134 31 19 75 58 99 86 24 28 49 51 55 51
14 0 105 95 105 109 0 6 19 23 42 37 45 29 98 82 98 100 0 6 15 24 33 41 57
53 147 175 147 199 0 6 9 19 20 29 11 10 20 23 20 28 0 5 18 29 40 53 22 24
40 50 40 58 0 8 14 39 31 68 17 29 40 74 50 101 22 54 28 162 10 180 -10 10
-50 23 -146 48 -22 6 -49 18 -60 28 -11 10 -47 23 -79 30 -33 6 -69 20 -81 31
-17 16 -39 20 -120 24 -58 3 -101 9 -103 15 -6 17 -39 13 -46 -5z"/>
<path d="M3250 2053 c-53 -10 -148 -62 -176 -96 -20 -24 -41 -36 -69 -41 -21
-4 -57 -17 -79 -28 -34 -17 -45 -19 -71 -9 -17 6 -36 11 -42 11 -14 0 -28
-136 -18 -178 6 -29 55 -112 82 -140 7 -7 13 -24 13 -38 0 -13 4 -24 9 -24 5
0 12 -13 16 -29 3 -16 13 -35 21 -42 8 -6 14 -18 14 -25 0 -16 52 -85 97 -130
17 -17 37 -50 44 -73 8 -29 20 -46 36 -52 13 -5 23 -13 23 -18 0 -5 16 -24 35
-42 19 -19 35 -38 35 -45 0 -17 37 -47 49 -39 6 3 11 -1 11 -10 0 -23 13 -38
108 -123 20 -17 43 -30 50 -27 7 3 10 0 7 -5 -3 -6 5 -14 19 -20 14 -5 26 -14
26 -20 0 -5 7 -10 15 -10 8 0 15 -5 15 -12 0 -9 3 -9 12 0 14 14 -5 37 -63 78
-21 15 -39 32 -39 38 0 6 -4 17 -9 25 -8 12 -12 12 -25 2 -13 -11 -17 -10 -23
7 -11 27 -93 91 -110 85 -8 -3 -13 2 -13 15 0 11 -7 25 -15 32 -8 7 -15 19
-15 26 0 8 -6 14 -14 14 -9 0 -16 12 -18 28 -2 18 -9 27 -20 26 -10 -1 -22 10
-28 27 -7 16 -18 34 -26 40 -8 6 -14 19 -14 28 0 10 -11 32 -25 51 -14 19 -25
42 -25 51 0 10 -8 25 -17 35 -10 10 -18 20 -19 23 0 3 -6 19 -12 34 -7 16 -12
33 -12 38 0 5 -9 9 -19 9 -16 0 -19 10 -23 78 -5 99 -2 115 23 101 15 -7 19
-6 19 6 0 8 -7 15 -16 15 -8 0 -12 5 -9 10 4 6 2 17 -5 25 -9 10 -5 14 18 20
16 3 55 30 88 60 37 33 71 55 91 58 49 8 224 99 241 125 8 12 27 29 41 37 25
14 25 14 -25 15 -28 0 -71 2 -95 4 -24 2 -55 2 -69 -1z"/>
</g>
</svg>
